HIERARCHY
ROOT Hips
{
	OFFSET 0 0 0
	CHANNELS 6 Xposition Yposition Zposition Yrotation Xrotation Zrotation
	JOINT Spine
	{
		OFFSET -0 8.18458 -2.60884
		CHANNELS 3 Yrotation Xrotation Zrotation
		JOINT Spine1
		{
			OFFSET -0 7.64996 0
			CHANNELS 3 Yrotation Xrotation Zrotation
			JOINT Spine2
			{
				OFFSET -0 7.64996 0
				CHANNELS 3 Yrotation Xrotation Zrotation
				JOINT Spine3
				{
					OFFSET -0 7.64996 0
					CHANNELS 3 Yrotation Xrotation Zrotation
					JOINT Neck
					{
						OFFSET -0 20.2406 3.60884
						CHANNELS 3 Yrotation Xrotation Zrotation
						JOINT Head
						{
							OFFSET -0 10.2307 0
							CHANNELS 3 Yrotation Xrotation Zrotation
							End Site
							{
								OFFSET 0 15 0
							}
						}
					}
					JOINT LeftShoulder
					{
						OFFSET 1.70512 8.71402 3.41024
						CHANNELS 3 Yrotation Xrotation Zrotation
						JOINT LeftArm
						{
							OFFSET 16.1177 0 0
							CHANNELS 3 Yrotation Xrotation Zrotation
							JOINT LeftForeArm
							{
								OFFSET 25.6257 0 0
								CHANNELS 3 Yrotation Xrotation Zrotation
								JOINT LeftHand
								{
									OFFSET 24.0244 0 0
									CHANNELS 3 Yrotation Xrotation Zrotation
									End Site
									{
										OFFSET 15 0 0
									}
								}
							}
						}
					}
					JOINT RightShoulder
					{
						OFFSET -1.70512 8.71402 3.41024
						CHANNELS 3 Yrotation Xrotation Zrotation
						JOINT RightArm
						{
							OFFSET -16.1177 0 0
							CHANNELS 3 Yrotation Xrotation Zrotation
							JOINT RightForeArm
							{
								OFFSET -25.6257 0 0
								CHANNELS 3 Yrotation Xrotation Zrotation
								JOINT RightHand
								{
									OFFSET -24.0244 0 0
									CHANNELS 3 Yrotation Xrotation Zrotation
									End Site
									{
										OFFSET -15 0 0
									}
								}
							}
						}
					}
				}
			}
		}
	}
	JOINT LeftUpLeg
	{
		OFFSET 10.2307 -3.41024 2
		CHANNELS 3 Yrotation Xrotation Zrotation
		JOINT LeftLeg
		{
			OFFSET -0 -40.9418 2.38717
			CHANNELS 3 Yrotation Xrotation Zrotation
			JOINT LeftFoot
			{
				OFFSET -0 -40.8162 -2.38717
				CHANNELS 3 Yrotation Xrotation Zrotation
				JOINT LeftToeBase
				{
					OFFSET -0 -6.58348 15.3461
					CHANNELS 3 Yrotation Xrotation Zrotation
					End Site
					{
						OFFSET 0 0 5
					}
				}
			}
		}
	}
	JOINT RightUpLeg
	{
		OFFSET -10.2307 -3.41024 2
		CHANNELS 3 Yrotation Xrotation Zrotation
		JOINT RightLeg
		{
			OFFSET -0 -40.9418 2.38717
			CHANNELS 3 Yrotation Xrotation Zrotation
			JOINT RightFoot
			{
				OFFSET -0 -40.8162 -2.38717
				CHANNELS 3 Yrotation Xrotation Zrotation
				JOINT RightToeBase
				{
					OFFSET -0 -6.58348 15.3461
					CHANNELS 3 Yrotation Xrotation Zrotation
					End Site
					{
						OFFSET 0 0 5
					}
				}
			}
		}
	}
}
MOTION
Frames: 15
Frame Time: 0.00833333
-25.816080 89.667651 -24.951178 14.792801 -15.159848 3.396908 2.520393 6.177447 -5.542227 -0.916417 5.545740 -3.417439 -0.249628 5.817865 -1.334469 -0.501360 5.578769 -0.766720 -11.781178 0.279010 5.774592 -5.052968 -4.954073 5.150645 14.513652 11.275966 0.272790 -27.525087 -8.392734 -53.680901 -49.119348 -12.995310 5.604642 9.576272 -7.656202 -16.459817 -11.806315 10.124203 4.979768 19.166147 11.481155 68.460363 66.280283 -0.711770 -2.037561 -13.841660 8.604982 17.957417 5.503932 9.492906 -2.431938 0.000000 26.631788 0.000000 3.156747 -13.634625 6.549950 0.000000 -5.543019 0.000000 -11.803024 -10.299144 -20.226834 180.000000 62.251789 180.000000 -23.846424 -13.246389 6.572417 0.000000 -11.436459 0.000000
-25.868686 89.737878 -25.054607 14.251238 -14.726422 3.292431 2.312081 6.132772 -5.339170 -1.099280 5.509019 -3.386895 -0.130175 5.668187 -1.468631 -0.482175 5.421450 -0.803724 -11.455055 0.029919 5.734748 -4.914168 -5.135344 5.044268 14.363918 11.237653 0.310870 -28.670989 -9.002343 -52.932517 -49.701438 -12.564626 5.269969 9.381578 -6.929839 -15.718932 -11.952689 9.801660 4.346694 19.717095 11.451346 68.118450 70.361594 0.290759 -1.885592 -13.512777 10.120213 18.536892 5.610413 8.989410 -2.376879 0.000000 26.666555 0.000000 3.652792 -13.471099 6.376506 0.000000 -5.646684 0.000000 -11.009485 -11.587426 -19.478065 180.000000 62.161761 180.000000 -23.941225 -13.595483 6.208089 0.000000 -11.369538 0.000000
-25.949728 89.789636 -25.253352 13.473576 -14.245347 3.264275 2.244467 6.343497 -5.017626 -1.057715 5.447465 -3.359150 -0.161133 5.407462 -1.786778 -0.638993 5.025548 -0.933757 -11.036428 -0.114438 5.974478 -4.710071 -5.089428 4.698296 14.299608 11.224190 0.622787 -29.934725 -9.598437 -52.169533 -50.503850 -12.523270 4.981907 10.019967 -4.887938 -15.080524 -11.937032 9.589863 3.780083 20.008058 11.011044 67.579048 74.715680 1.491287 -1.264290 -13.538667 11.345650 18.869002 6.066084 8.353242 -2.307329 0.000000 26.811909 0.000000 4.063573 -13.279183 6.301245 0.000000 -5.748259 0.000000 -9.889205 -13.042648 -18.770085 180.000000 62.135702 180.000000 -23.821903 -13.900702 6.234181 0.000000 -11.416177 0.000000
-26.030698 89.860065 -25.455122 12.843627 -13.602664 3.144955 2.069777 6.366684 -4.738326 -1.095946 5.335221 -3.304395 -0.189983 5.187006 -1.938034 -0.760896 4.672405 -1.132101 -10.524962 -0.295628 6.183831 -4.465566 -5.084214 4.330012 14.175065 11.098174 0.808806 -31.279193 -10.110799 -51.123460 -51.103679 -11.949095 4.049443 10.113538 -3.562595 -13.626225 -11.999036 9.200037 3.172221 20.180106 10.291202 66.867513 79.095744 2.418670 -0.381459 -13.224242 11.721308 19.815808 6.399926 7.420012 -2.203572 0.000000 27.160786 0.000000 4.467471 -13.124073 6.114375 0.000000 -5.715819 0.000000 -8.843609 -14.568527 -18.026190 180.000000 62.380454 180.000000 -23.456683 -14.120492 6.424905 0.000000 -11.644330 0.000000
-26.127899 89.947522 -25.636337 12.144719 -13.064237 2.870226 1.814611 6.474409 -4.344702 -1.157194 5.353708 -3.226776 -0.087811 4.860593 -2.158989 -0.765126 4.163606 -1.092577 -10.143106 -0.395516 6.236860 -4.280782 -4.946815 3.908775 13.814358 11.118579 0.858097 -32.248237 -10.814440 -50.123634 -51.680480 -11.197262 3.035283 10.820989 -0.634460 -12.516254 -12.177222 8.836518 2.416970 20.560541 9.357883 66.053067 83.508682 2.369039 0.388055 -12.857103 12.030240 20.965524 7.001758 6.611518 -1.826689 0.000000 27.482849 0.000000 4.667845 -12.947369 5.860970 0.000000 -5.791095 0.000000 -7.742116 -15.905002 -17.127887 180.000000 62.904661 180.000000 -22.956128 -14.430764 6.803754 0.000000 -11.277697 0.000000
-26.220529 90.028351 -25.860217 11.586954 -12.414805 2.582301 1.499508 6.595324 -4.162003 -1.268803 5.329077 -3.092532 -0.112576 4.497671 -2.043984 -0.763382 3.593646 -1.232998 -9.643334 -0.535172 6.304924 -4.050453 -4.712266 3.547069 13.616175 11.146172 0.906951 -33.769989 -11.263851 -48.934061 -52.341774 -10.660140 2.217652 11.417748 1.378097 -11.971855 -12.309262 8.413040 1.703379 21.086493 8.075980 65.103918 87.752902 2.267929 1.231125 -12.610008 10.927280 22.060157 7.469357 5.578938 -1.503872 0.000000 27.917361 0.000000 4.856446 -12.780999 5.686806 0.000000 -5.868965 0.000000 -6.701237 -17.339011 -16.330062 180.000000 63.618523 180.000000 -22.163444 -14.727836 7.141577 0.000000 -11.374881 0.000000
-26.328333 90.110168 -26.096567 10.879407 -11.650187 2.297519 1.177568 6.711320 -3.752758 -1.343984 5.090963 -3.026692 -0.090700 4.143047 -2.319149 -0.802113 3.193004 -1.248118 -9.088564 -0.773256 6.566667 -3.781254 -4.544561 3.029535 13.290846 10.881542 1.037077 -34.543123 -11.881689 -47.914508 -53.206288 -10.349591 0.678261 12.396470 3.654553 -10.942539 -12.341166 7.945505 1.208665 21.926459 6.608962 64.004921 91.755457 1.374851 1.856143 -11.946102 9.350303 22.794583 8.105477 4.472171 -1.161118 0.000000 28.276367 0.000000 5.008479 -12.623670 5.569265 0.000000 -5.947078 0.000000 -5.559291 -18.870798 -15.506547 180.000000 64.524230 180.000000 -21.379126 -14.995809 7.380300 0.000000 -11.141638 0.000000
-26.414120 90.215216 -26.300287 10.524696 -11.001187 1.757017 0.818087 6.534153 -3.421085 -1.514207 5.156783 -2.809360 -0.178645 3.997582 -2.143593 -0.814013 2.758527 -1.384874 -8.608818 -1.013136 6.657963 -3.555777 -4.348799 2.594673 12.875236 10.723291 0.913950 -35.904071 -12.274368 -46.587218 -53.919670 -9.955634 -0.482172 12.349386 6.656532 -10.970508 -12.169893 7.388573 0.710880 22.539390 4.854939 62.849055 95.576371 0.134735 2.367391 -11.383838 7.775830 23.743188 8.318891 3.396518 -0.673367 0.000000 28.685593 0.000000 5.248482 -12.468608 5.459960 0.000000 -6.102026 0.000000 -4.799272 -20.069832 -14.604811 180.000000 65.844634 180.000000 -20.455592 -15.180870 7.812349 0.000000 -11.328647 0.000000
-26.509064 90.318005 -26.552335 9.920998 -10.171776 1.351279 0.492740 6.573940 -3.169231 -1.574561 4.750527 -2.650588 -0.232750 3.742777 -2.091867 -0.831171 2.527592 -1.256148 -8.044650 -1.163177 6.637856 -3.288043 -4.512040 2.211585 12.321316 10.519306 0.648364 -37.065052 -12.633550 -45.219434 -54.625102 -8.793285 -1.974817 12.421930 8.001382 -10.569643 -12.100071 6.754845 0.234556 23.627004 2.711111 61.552139 98.896301 -1.724218 2.588656 -10.994808 6.837868 24.574688 8.899737 2.184559 -0.261593 0.000000 29.016837 0.000000 5.337651 -12.300448 5.344672 0.000000 -6.225516 0.000000 -4.013373 -21.568921 -13.972379 180.000000 67.295105 180.000000 -19.498046 -15.212956 7.731914 0.000000 -12.053515 0.000000
-26.611517 90.417761 -26.804529 9.411381 -9.298719 0.848376 0.185186 6.457001 -2.862786 -1.660831 4.536329 -2.432567 -0.351057 3.493553 -1.918248 -0.860378 2.267017 -1.279275 -7.473879 -1.504074 6.654228 -3.013724 -4.437747 1.673777 11.733789 10.025315 0.406501 -38.146536 -12.804512 -43.863145 -55.409673 -8.016201 -3.782523 13.260865 11.365226 -8.964807 -11.993470 6.085464 -0.032683 24.968480 0.592544 60.110372 101.895153 -2.433476 2.547208 -10.241440 4.953043 25.218629 9.459581 0.903876 0.238626 0.000000 29.352390 0.000000 5.316182 -12.228245 5.327367 0.000000 -6.208669 0.000000 -3.317667 -23.032643 -13.283321 180.000000 68.951996 180.000000 -18.595863 -15.286655 7.991017 0.000000 -11.981876 0.000000
-26.722076 90.512970 -27.065457 8.876807 -8.424989 0.398455 -0.209187 6.327872 -2.570374 -1.796734 4.388317 -2.269261 -0.402232 3.231882 -1.912974 -0.841096 1.907862 -1.163783 -6.863473 -1.770409 6.737219 -2.716784 -4.461414 1.190560 11.223424 9.525333 0.171616 -39.255682 -12.955075 -42.378638 -56.399615 -6.893623 -5.887485 13.817771 13.647470 -8.242498 -11.624355 5.605365 -0.051188 26.189495 -1.814464 58.443166 104.803871 -4.048784 2.478266 -9.889349 3.702480 25.378557 10.065271 -0.344849 0.682354 0.000000 29.619328 0.000000 5.270028 -12.147823 5.340680 0.000000 -6.235124 0.000000 -2.753669 -24.417025 -12.760113 180.000000 70.818896 180.000000 -17.699580 -15.333956 8.096024 0.000000 -11.850986 0.000000
-26.805518 90.608899 -27.325009 8.243449 -7.561797 0.007041 -0.499596 6.174758 -2.321119 -1.888806 4.266873 -2.080850 -0.424586 2.983262 -1.748069 -0.763985 1.613636 -1.203482 -6.412924 -2.001524 6.833844 -2.479494 -4.680677 0.762827 10.546081 8.879800 -0.048161 -40.542867 -13.093163 -40.693940 -57.223374 -6.095542 -8.459987 14.564481 17.226576 -6.234289 -11.408303 5.028732 0.046062 27.916313 -4.119800 56.551489 107.242454 -4.524390 1.848697 -9.155795 2.440244 26.077655 10.775750 -1.516149 1.061848 0.000000 29.781889 0.000000 5.155618 -12.033981 5.390480 0.000000 -6.288985 0.000000 -1.959805 -25.722029 -12.313152 180.000000 72.889145 180.000000 -17.025300 -15.204993 8.690964 0.000000 -11.891776 0.000000
-26.871243 90.693719 -27.601208 7.692567 -6.675360 -0.255714 -0.730015 6.088776 -2.146617 -1.931434 4.023096 -1.963481 -0.525716 2.712847 -1.697538 -0.808653 1.355637 -0.913366 -5.790622 -2.186275 6.738676 -2.168550 -4.887806 0.228897 9.759798 8.341038 -0.412084 -41.518784 -13.323197 -39.000320 -58.599044 -5.448209 -11.230618 15.324917 20.635503 -5.968886 -10.925542 4.623486 0.216259 29.930853 -6.260614 54.358665 109.483715 -5.576016 0.784222 -8.583546 1.664317 26.301936 11.380129 -2.688899 1.243152 0.000000 29.899135 0.000000 5.085675 -11.884824 5.466206 0.000000 -6.335850 0.000000 -1.337565 -26.982374 -12.182009 180.000000 75.135307 180.000000 -16.433387 -14.960599 9.173471 0.000000 -12.093689 0.000000
-26.933929 90.778265 -27.839789 7.208157 -5.906974 -0.546648 -0.964609 5.996651 -2.028605 -1.999533 3.900651 -1.794436 -0.612356 2.502074 -1.457073 -0.805527 1.107599 -0.764800 -5.307787 -2.624623 6.607169 -1.931543 -4.788970 -0.247201 9.005788 7.647537 -0.842269 -42.794698 -13.368203 -37.113358 -60.153255 -4.905765 -14.071031 15.375675 24.229796 -6.131013 -10.378179 4.194637 0.509643 32.078799 -8.032294 52.059110 111.592878 -5.551788 -0.365191 -8.248958 -0.746657 25.281502 11.883453 -3.720974 1.454181 0.000000 30.007265 0.000000 5.034775 -11.766431 5.496954 0.000000 -6.356021 0.000000 -0.980613 -27.979244 -12.098708 180.000000 77.606393 180.000000 -16.036668 -14.741881 9.724213 0.000000 -11.912369 0.000000
-26.952161 90.845154 -28.083905 6.848164 -5.096498 -0.846725 -1.207028 5.930769 -1.661223 -2.083342 3.734856 -1.640222 -0.734646 2.206664 -1.529993 -0.876393 0.860960 -0.624484 -4.849585 -2.873569 6.552182 -1.707261 -4.804896 -0.576152 8.073106 6.955853 -1.085560 -44.100393 -12.885232 -35.285974 -62.616883 -4.241767 -16.558830 14.613164 25.076708 -7.938505 -9.549577 3.920220 1.166727 34.614269 -9.099296 49.415546 113.435636 -5.725622 -2.443792 -7.545509 -1.831721 24.771305 12.169670 -4.856123 1.586550 0.000000 30.209158 0.000000 5.083464 -11.659591 5.503641 0.000000 -6.438362 0.000000 -0.751859 -28.894466 -12.104630 180.000000 80.234364 180.000000 -15.776457 -14.426006 10.304361 0.000000 -11.896972 0.000000
